HIERARCHY
ROOT RootJoint
{
    OFFSET   0.000000   0.000000   0.000000
    CHANNELS 6 Xposition Yposition Zposition Xrotation Yrotation Zrotation
    JOINT pelvis_lowerback
    {
        OFFSET   0.000000   0.093605   0.000000
        CHANNELS 3 Xrotation Yrotation Zrotation
        JOINT lowerback_torso
        {
            OFFSET   0.000000   0.100000   0.000000
            CHANNELS 3 Xrotation Yrotation Zrotation
            JOINT torso_head
            {
                OFFSET   0.000000   0.282350   0.000000
                CHANNELS 3 Xrotation Yrotation Zrotation
                End Site
                {
                    OFFSET   0.000000   0.192650   0.000000
                }
            }
            JOINT rTorso_Clavicle
            {
                OFFSET  -0.001000   0.157500   0.000000
                CHANNELS 3 Xrotation Yrotation Zrotation
                JOINT rShoulder
                {
                    OFFSET  -0.117647   0.000000   0.000000
                    CHANNELS 3 Xrotation Yrotation Zrotation
                    JOINT rElbow
                    {
                        OFFSET  -0.245000   0.000000   0.000000
                        CHANNELS 3 Xrotation Yrotation Zrotation
                        JOINT rWrist
                        {
                            OFFSET  -0.240000   0.000000   0.000000
                            CHANNELS 3 Xrotation Yrotation Zrotation
                            End Site
                            {
                                OFFSET  -0.116353  -0.002500   0.000000
                            }
                        }
                    }
                }
            }
            JOINT lTorso_Clavicle
            {
                OFFSET   0.001000   0.157500   0.000000
                CHANNELS 3 Xrotation Yrotation Zrotation
                JOINT lShoulder
                {
                    OFFSET   0.117647   0.000000   0.000000
                    CHANNELS 3 Xrotation Yrotation Zrotation
                    JOINT lElbow
                    {
                        OFFSET   0.245000   0.000000   0.000000
                        CHANNELS 3 Xrotation Yrotation Zrotation
                        JOINT lWrist
                        {
                            OFFSET   0.240000   0.000000   0.000000
                            CHANNELS 3 Xrotation Yrotation Zrotation
                            End Site
                            {
                                OFFSET   0.116353  -0.002500   0.000000
                            }
                        }
                    }
                }
            }
        }
    }
    JOINT rHip
    {
        OFFSET  -0.100000  -0.051395   0.000000
        CHANNELS 3 Xrotation Yrotation Zrotation
        JOINT rKnee
        {
            OFFSET   0.000000  -0.410000   0.000000
            CHANNELS 3 Xrotation Yrotation Zrotation
            JOINT rAnkle
            {
                OFFSET   0.000000  -0.390000   0.000000
                CHANNELS 3 Xrotation Yrotation Zrotation
                JOINT rToeJoint
                {
                    OFFSET   0.000000  -0.050000   0.130000
                    CHANNELS 3 Xrotation Yrotation Zrotation
                    End Site
                    {
                        OFFSET  -0.010000   0.002000   0.060000
                    }
                }
            }
        }
    }
    JOINT lHip
    {
        OFFSET   0.100000  -0.051395   0.000000
        CHANNELS 3 Xrotation Yrotation Zrotation
        JOINT lKnee
        {
            OFFSET   0.000000  -0.410000   0.000000
            CHANNELS 3 Xrotation Yrotation Zrotation
            JOINT lAnkle
            {
                OFFSET   0.000000  -0.390000   0.000000
                CHANNELS 3 Xrotation Yrotation Zrotation
                JOINT lToeJoint
                {
                    OFFSET   0.000000  -0.050000   0.130000
                    CHANNELS 3 Xrotation Yrotation Zrotation
                    End Site
                    {
                        OFFSET   0.010000   0.002000   0.060000
                    }
                }
            }
        }
    }
}
MOTION
Frames: 10
Frame Time:   0.008333
 -1.711315   0.805877   2.889973 169.631809  42.660085 -162.031957  46.590103  -1.466306   1.679945  -2.342746  -1.165378  -4.873706 -15.977229   7.133332 -10.524974  -1.425885  13.748428   8.400389   0.422209  -1.156634  43.579458   0.000755  32.646979   0.001027  -7.040957   6.479441   1.516334  -2.227844 -29.017800  -7.374456  18.065519 -36.808978 -30.051508   0.000067 -60.294907   0.000258   3.911033 -10.044783  -0.280889 -43.901288  -1.036798 -29.192318  63.121030   0.001577  -0.000246 -25.519244 -11.161435  -4.948014   0.482718  -0.002464   0.000060 -48.891723  14.283745  22.761414  36.141177   0.001686  -0.020181  -3.281280   0.071298  -7.677756  -1.879965  -0.000658   0.001422
 -1.712180   0.804834   2.886426 169.578629  42.510343 -162.187608  46.678535  -1.353418   1.571672  -2.332231  -1.126545  -4.930025 -15.972839   7.254137 -10.545853  -1.409488  13.649122   8.520057   0.401639  -1.316861  43.550627   0.001262  32.298009   0.001044  -7.128469   6.602321   1.493984  -2.182726 -29.085789  -7.278822  17.993881 -36.969406 -29.981881   0.000122 -60.212148   0.000416   3.897799 -10.055808  -0.449832 -43.959144  -1.054555 -29.330977  63.376073   0.001834  -0.000379 -25.256710 -11.279034  -4.867079  -0.067977  -0.003247   0.000249 -48.902502  14.423633  22.753781  35.380426   0.000300  -0.017737  -3.054972   0.226659  -7.452784  -1.835796  -0.000547   0.001277
 -1.713211   0.803715   2.882683 169.541055  42.366777 -162.366075  46.777751  -1.238314   1.471948  -2.316069  -1.091232  -4.982821 -15.970608   7.371938 -10.565139  -1.387457  13.553451   8.633828   0.388049  -1.475431  43.518767   0.001651  31.959533   0.001064  -7.211665   6.648848   1.438793  -2.159471 -29.164301  -7.195854  17.916322 -37.128145 -29.910384   0.000170 -60.135201   0.000524   3.886898 -10.066986  -0.617882 -44.005023  -1.067798 -29.474345  63.634151   0.002078  -0.000512 -24.972785 -11.396995  -4.795451  -0.644092  -0.004092   0.000411 -48.908135  14.565410  22.717268  34.728147  -0.000889  -0.015504  -2.840945   0.372653  -7.243779  -1.789795  -0.000436   0.001165
 -1.714385   0.802504   2.878758 169.497864  42.233462 -162.562845  46.871790  -1.128760   1.379612  -2.299820  -1.058220  -5.030489 -15.968187   7.482771 -10.582810  -1.363890  13.462893   8.742517   0.377775  -1.625372  43.490533   0.001946  31.641252   0.001018  -7.290206   6.668606   1.383141  -2.144022 -29.240027  -7.119674  17.839962 -37.277798 -29.841688   0.000194 -60.064447   0.000580   3.876850 -10.077062  -0.767768 -44.042245  -1.082403 -29.606973  63.879078   0.002271  -0.000627 -24.694314 -11.509595  -4.729599  -1.197925  -0.004807   0.000507 -48.909837  14.703660  22.667896  34.134267  -0.001895  -0.013534  -2.640948   0.509517  -7.049603  -1.746862  -0.000332   0.001061
 -1.715697   0.801192   2.874651 169.443643  42.112664 -162.776387  46.957037  -1.026115   1.293534  -2.285888  -1.026991  -5.073276 -15.965788   7.586404 -10.599143  -1.340424  13.377706   8.846217   0.369315  -1.765842  43.466133   0.002175  31.343618   0.000905  -7.365081   6.680307   1.333115  -2.131425 -29.310592  -7.048033  17.767606 -37.417323 -29.776629   0.000195 -59.998769   0.000594   3.867415 -10.086334  -0.904481 -44.073088  -1.099290 -29.725587  64.108810   0.002413  -0.000725 -24.427384 -11.614061  -4.667719  -1.719059  -0.005363   0.000548 -48.907689  14.836488  22.611810  33.585447  -0.002731  -0.011805  -2.454458   0.637862  -6.869064  -1.707377  -0.000238   0.000961
 -1.717147   0.799772   2.870361 169.377465  42.004986 -163.006170  47.032937  -0.930412   1.213213  -2.275031  -0.997359  -5.111685 -15.963696   7.683169 -10.614299  -1.317668  13.297674   8.944553   0.362023  -1.897128  43.444828   0.002354  31.065752   0.000743  -7.436728   6.689892   1.288429  -2.119776 -29.375675  -6.979984  17.700286 -37.546641 -29.715132   0.000178 -59.936887   0.000579   3.857592 -10.148215  -1.028660 -44.098678  -1.118224 -29.830208  64.324297   0.002513  -0.000809 -24.173243 -11.709512  -4.609086  -2.205823  -0.005774   0.000547 -48.901635  14.963459  22.551617  33.076472  -0.003413  -0.010289  -2.280615   0.758193  -6.701136  -1.671090  -0.000153   0.000867
 -1.718724   0.798240   2.865885 169.305624  41.908921 -163.258380  47.102266  -0.841536   1.140338  -2.266088  -0.969566  -5.145148 -15.961885   7.773470 -10.628186  -1.296065  13.222860   9.037735   0.355439  -2.019607  43.425967   0.002493  30.806431   0.000552  -7.505362   6.698864   1.247916  -2.109119 -29.436167  -6.916099  17.637198 -37.667541 -29.657688   0.000149 -59.880300   0.000540   3.849353 -10.145938  -1.150785 -44.124473  -1.139736 -29.922729  64.540533   0.002616  -0.000900 -23.904292 -11.799082  -4.546756  -1.689836  -0.002984   0.000312 -48.889506  15.084930  22.490070  32.604487  -0.003963  -0.008979  -2.118541   0.870952  -6.544876  -1.637645  -0.000079   0.000780
 -1.720566   0.796482   2.861224 169.147573  41.836226 -163.454386  47.077779  -0.700866   1.042664  -2.220520  -0.918337  -5.183124 -15.973801   7.918032 -10.651967  -1.291065  13.151604   9.130655   0.272149  -2.215122  43.376698   0.003400  30.342109  -0.000009  -7.598297   6.793582   1.247256  -2.094194 -29.561283  -6.795833  17.599124 -37.938519 -29.547436  -0.000032 -59.726992   0.000311   3.835586 -10.150553  -1.339364 -44.189425  -1.127930 -30.007298  64.721669   0.002631  -0.000956 -23.711057 -11.914270  -4.410483  -2.210781  -0.003721   0.000596 -49.049869  15.110762  22.436992  32.647039  -0.003054  -0.007149  -1.928210   0.956737  -6.332838  -1.633673  -0.000061   0.000632
 -1.722603   0.794624   2.856370 168.969611  41.789912 -163.637609  47.060880  -0.561948   0.936699  -2.188431  -0.868394  -5.230099 -15.989865   8.058674 -10.675834  -1.288735  13.090337   9.212772   0.192471  -2.400710  43.320325   0.004118  29.899345  -0.000441  -7.688053   6.820739   1.206751  -2.098451 -29.697685  -6.685035  17.555550 -38.202334 -29.435641  -0.000157 -59.583802   0.000119   3.825022 -10.158272  -1.544868 -44.249451  -1.091861 -30.091060  64.875880   0.002584  -0.000987 -23.544859 -12.007863  -4.283677  -2.619478  -0.004100   0.000701 -49.204643  15.132490  22.366353  32.768513  -0.002097  -0.005665  -1.745338   1.036754  -6.135398  -1.619375  -0.000033   0.000529
 -1.724806   0.792663   2.851324 168.775111  41.763187 -163.825043  47.044775  -0.430932   0.833991  -2.164648  -0.821481  -5.279450 -16.005399   8.190753 -10.698588  -1.289797  13.036811   9.285261   0.115115  -2.572081  43.263056   0.004644  29.486219  -0.000811  -7.773445   6.835581   1.155139  -2.112136 -29.831345  -6.583738  17.509328 -38.452033 -29.327975  -0.000260 -59.451673  -0.000047   3.815543 -10.166196  -1.732923 -44.310120  -1.053641 -30.167678  65.010310   0.002494  -0.001003 -23.390626 -12.095437  -4.164381  -2.947908  -0.004233   0.000761 -49.343657  15.155920  22.289017  32.899502  -0.001282  -0.004504  -1.573801   1.111676  -5.951535  -1.603963  -0.000006   0.000445
